<?xml version="1.0" encoding="UTF-8" standalone="no"?>

<svg
  xmlns="http://www.w3.org/2000/svg"
  width="6.5153265mm"
  height="6.5153255mm"
  viewBox="0 0 6.5153265 6.5153255"
  version="1.1"
  id="svg8">
  <g id="layer1" transform="translate(-52.66512,-130.36094)">
    <path
      style="fill:#b0b0b0;stroke-width:0.26458335"
      d="m 52.950696,136.59069 c
       -0.508229,-0.50823 -0.383196,-0.83387 0.742054,-1.93265 l
       1.059553,-1.03463 -1.095389,-1.11612 c -1.116689,-1.13782 -1.221875,-1.78814
       -0.343727,-2.12511 0.284214,-0.10907 0.793603,0.20218 1.520431,0.92901 l 1.093022,1.09302
       1.111786,-1.09114 c 0.729056,-0.71551 1.257228,-1.03532 1.534279,-0.92901 0.872284,0.33473
       0.766225,0.98727 -0.34439,2.1189 l -1.091135,1.11179 1.093022,1.09302 c 0.726827,0.72683
       1.038072,1.23622 0.929009,1.52043 -0.336977,0.87815 -0.987296,0.77296 -2.125119,-0.34373
       l -1.11612,-1.09539 -1.034626,1.05956 c -1.098777,1.12525 -1.42442,1.25028 -1.93265,0.74205
       z m 4.172243,-1.14604 c 0.915653,0.93299 1.23916,1.12046 1.52463,0.88354 0.295385,-0.24515
       0.13965,-0.52683 -0.842619,-1.5241 l -1.204976,-1.22337 1.184269,-1.16227 c 0.932982,-0.91566
       1.120458,-1.23916 0.883539,-1.52463 -0.245148,-0.29539 -0.526837,-0.13965 -1.524101,0.84262 l
       -1.223372,1.20497 -1.162272,-1.18427 c -0.915653,-0.93298 -1.23916,-1.12045 -1.52463,-0.88354
       -0.295385,0.24515 -0.13965,0.52684 0.842619,1.52411 l 1.204976,1.22337 -1.184269,1.16227 c
       -0.932982,0.91565 -1.120458,1.23916 -0.883539,1.52463 0.245148,0.29538 0.526837,0.13965
       1.524101,-0.84262 l 1.223372,-1.20498 z"
      id="path3724"/>
  </g>
</svg>
